<?xml version="1.0" encoding="utf-8"?>
<svg viewBox="-63.10312499999998 -50.5 626.20625 251" style="background: rgba(0, 0, 0, 0);" xmlns="http://www.w3.org/2000/svg">
  <defs>
    <filter id="editing-hole" x="-100%" y="-100%" width="300%" height="300%">
      <feFlood flood-color="#000" result="black"/>
      <feMorphology operator="dilate" radius="2" in="SourceGraphic" result="erode"/>
      <feGaussianBlur in="erode" stdDeviation="4" result="blur"/>
      <feOffset in="blur" dx="2" dy="2" result="offset"/>
      <feComposite operator="atop" in="offset" in2="black" result="merge"/>
      <feComposite operator="in" in="merge" in2="SourceGraphic" result="inner-shadow"/>
    </filter>
    <style>text {
  font-size: 64px;
  font-family: Arial Black;
  dominant-baseline: central;
  text-anchor: middle;
}</style>
  </defs>
  <g filter="url(#editing-hole)" transform="matrix(1.384764, 0, 0, 1.728147, -93.2201, -105.21048)" style="">
    <g transform="translate(26.109994411468506, 142.9650011062622)">
      <path d="M4.82-14.60L4.82-14.60L4.82-14.60Q4.82-18.54 6.86-28.47L6.86-28.47L14.60-67.89L5.99-67.89L6.57-72.27L6.57-72.27Q24.09-77.53 41.03-90.37L41.03-90.37L48.03-90.37L44.53-74.46L55.92-74.46L54.60-67.89L43.36-67.89L35.92-28.47L35.92-28.47Q34.02-19.42 34.02-16.35L34.02-16.35L34.02-16.35Q34.02-9.34 40.15-7.88L40.15-7.88L40.15-7.88Q38.69-2.92 33.43 0L33.43 0L33.43 0Q28.18 2.92 20.73 2.92L20.73 2.92L20.73 2.92Q13.29 2.92 9.05-1.75L9.05-1.75L9.05-1.75Q4.82-6.42 4.82-14.60ZM100.89-41.03L100.89-41.03L100.89-41.03Q106.14-50.37 106.14-59.86L106.14-59.86L106.14-59.86Q106.14-66.14 101.62-66.14L101.62-66.14L101.62-66.14Q98.11-66.14 94.46-60.15L94.46-60.15L94.46-60.15Q90.67-54.17 89.50-46.43L89.50-46.43L81.91 0L51.68 2.92L66.58-74.46L90.67-77.38L88.04-62.63L88.04-62.63Q95.19-77.38 111.25-77.38L111.25-77.38L111.25-77.38Q119.72-77.38 124.32-73L124.32-73L124.32-73Q128.92-68.62 128.92-59.64L128.92-59.64L128.92-59.64Q128.92-50.66 123.00-44.97L123.00-44.97L123.00-44.97Q117.09-39.27 107.02-39.27L107.02-39.27L107.02-39.27Q102.64-39.27 100.89-41.03ZM166.29-8.03L166.29-8.03L166.29-8.03Q161.77 2.92 147.31 2.92L147.31 2.92L147.31 2.92Q139.87 2.92 135.20-2.19L135.20-2.19L135.20-2.19Q131.25-6.72 131.25-11.24L131.25-11.24L131.25-11.24Q131.25-23.07 136.66-46.14L136.66-46.14L142.06-74.46L171.70-77.38L162.79-31.24L162.79-31.24Q160.31-20.44 160.31-16.64L160.31-16.64L160.31-16.64Q160.31-8.32 166.29-8.03ZM144.69-94.75L144.69-94.75L144.69-94.75Q144.69-100.45 149.43-103.51L149.43-103.51L149.43-103.51Q154.18-106.58 161.04-106.58L161.04-106.58L161.04-106.58Q167.90-106.58 172.06-103.51L172.06-103.51L172.06-103.51Q176.22-100.45 176.22-94.75L176.22-94.75L176.22-94.75Q176.22-89.06 171.62-86.14L171.62-86.14L171.62-86.14Q167.02-83.22 160.16-83.22L160.16-83.22L160.16-83.22Q153.30-83.22 148.99-86.14L148.99-86.14L148.99-86.14Q144.69-89.06 144.69-94.75ZM246.74-10.00L246.74-10.00L246.74-10.00Q240.61-3.80 232.21-0.44L232.21-0.44L232.21-0.44Q223.82 2.92 215.50 2.92L215.50 2.92L215.50 2.92Q207.17 2.92 204.25 1.46L204.25 1.46L199.73 26.28L170.09 29.20L190.24-74.46L214.04-76.94L212.14-66.87L212.14-66.87Q218.27-77.23 230.97-77.23L230.97-77.23L230.97-77.23Q245.28-77.23 252.87-68.04L252.87-68.04L252.87-68.04Q259.59-59.71 259.59-47.01L259.59-47.01L259.59-47.01Q259.59-34.31 256.23-25.26L256.23-25.26L256.23-25.26Q252.87-16.21 246.74-10.00ZM213.74-50.95L206.01-8.18L206.01-8.18Q209.07-5.55 212.87-5.55L212.87-5.55L212.87-5.55Q216.66-5.55 218.85-7.01L218.85-7.01L218.85-7.01Q221.04-8.47 222.65-11.39L222.65-11.39L222.65-11.39Q227.03-19.27 230.53-43.22L230.53-43.22L230.53-43.22Q231.56-50.22 231.56-57.09L231.56-57.09L231.56-57.09Q231.56-63.95 230.02-66.14L230.02-66.14L230.02-66.14Q228.49-68.33 225.57-68.33L225.57-68.33L225.57-68.33Q216.66-68.33 213.74-50.95L213.74-50.95ZM336.38-10.00L336.38-10.00L336.38-10.00Q330.25-3.80 321.86-0.44L321.86-0.44L321.86-0.44Q313.46 2.92 305.14 2.92L305.14 2.92L305.14 2.92Q296.82 2.92 293.90 1.46L293.90 1.46L289.37 26.28L259.73 29.20L279.88-74.46L303.68-76.94L301.78-66.87L301.78-66.87Q307.91-77.23 320.62-77.23L320.62-77.23L320.62-77.23Q334.92-77.23 342.52-68.04L342.52-68.04L342.52-68.04Q349.23-59.71 349.23-47.01L349.23-47.01L349.23-47.01Q349.23-34.31 345.87-25.26L345.87-25.26L345.87-25.26Q342.52-16.21 336.38-10.00ZM303.39-50.95L295.65-8.18L295.65-8.18Q298.72-5.55 302.51-5.55L302.51-5.55L302.51-5.55Q306.31-5.55 308.50-7.01L308.50-7.01L308.50-7.01Q310.69-8.47 312.29-11.39L312.29-11.39L312.29-11.39Q316.67-19.27 320.18-43.22L320.18-43.22L320.18-43.22Q321.20-50.22 321.20-57.09L321.20-57.09L321.20-57.09Q321.20-63.95 319.67-66.14L319.67-66.14L319.67-66.14Q318.13-68.33 315.21-68.33L315.21-68.33L315.21-68.33Q306.31-68.33 303.39-50.95L303.39-50.95ZM404.42-16.50L404.42-16.50L404.42-16.50Q396.83-8.61 382.96-8.61L382.96-8.61L382.96-8.61Q365.58-8.61 361.93-21.32L361.93-21.32L361.93-21.32Q360.77-25.11 360.77-29.35L360.77-29.35L360.77-29.35Q360.77-33.58 361.64-37.96L361.64-37.96L368.50-74.46L398.14-77.38L390.11-34.89L390.11-34.89Q389.82-33.00 389.38-30.95L389.38-30.95L389.38-30.95Q388.94-28.91 388.94-26.79L388.94-26.79L388.94-26.79Q388.94-24.67 389.67-23.29L389.67-23.29L389.67-23.29Q390.40-21.90 391.43-21.02L391.43-21.02L391.43-21.02Q393.18-19.86 396.32-19.86L396.32-19.86L396.32-19.86Q399.46-19.86 402.16-23.65L402.16-23.65L402.16-23.65Q404.86-27.45 406.17-34.02L406.17-34.02L414.20-74.46L442.96-77.38L432.01-20.00L432.01-20.00Q426.61 8.03 415.52 19.13L415.52 19.13L415.52 19.13Q409.82 24.82 402.45 27.08L402.45 27.08L402.45 27.08Q395.08 29.35 385.59 29.35L385.59 29.35L385.59 29.35Q370.26 29.35 361.50 24.53L361.50 24.53L361.50 24.53Q352.74 19.71 352.74 11.68L352.74 11.68L352.74 11.68Q352.74 5.69 357.26 2.26L357.26 2.26L357.26 2.26Q361.79-1.17 368.80-1.17L368.80-1.17L368.80-1.17Q374.93-1.17 379.60 1.46L379.60 1.46L379.60 1.46Q382.37 3.07 383.69 5.11L383.69 5.11L383.69 5.11Q380.33 8.03 380.33 12.85L380.33 12.85L380.33 12.85Q380.33 19.27 386.17 19.27L386.17 19.27L386.17 19.27Q395.81 19.27 401.35-2.92L401.35-2.92L401.35-2.92Q402.96-9.49 404.42-16.50Z" fill="#ccc"/>
    </g>
  </g>
</svg>